<?xml version="1.0" encoding="iso-8859-1"?>
<!-- Generator: Adobe Illustrator 19.0.0, SVG Export Plug-In . SVG Version: 6.00 Build 0)  -->
<svg version="1.1" id="Layer_1" xmlns="http://www.w3.org/2000/svg" xmlns:xlink="http://www.w3.org/1999/xlink" x="0px" y="0px"
	 viewBox="0 0 512.768 512.768" style="enable-background:new 0 0 512.768 512.768;" xml:space="preserve">
<g transform="translate(0 -1)">
	<g>
		<path d="M504.233,6.244c-5.695-4.828-13.841-6.8-22.394-2.912L12.506,216.665c-16.337,7.426-16.764,30.477-0.713,38.502
			l145.331,72.666l-7.767,163.239c-0.858,18.029,19.667,28.91,34.107,18.082l78.318-58.726l40.67,54.494
			c10.136,13.582,31.299,10.491,37.128-5.422L511.358,30.573C515.039,20.522,511.111,11.419,504.233,6.244z M392.393,90.856
			L233.58,249.669l-45.937,45.72L70.87,237.003L392.393,90.856z M194.13,447.828l3.938-82.764l38.194,51.172L194.13,447.828z
			 M313.074,447.819l-92.868-124.435l43.527-43.527l174.484-173.664L313.074,447.819z"/>
	</g>
</g>
<g>
</g>
<g>
</g>
<g>
</g>
<g>
</g>
<g>
</g>
<g>
</g>
<g>
</g>
<g>
</g>
<g>
</g>
<g>
</g>
<g>
</g>
<g>
</g>
<g>
</g>
<g>
</g>
<g>
</g>
</svg>
